<svg width="14" height="14" viewBox="0 0 14 14" fill="none" xmlns="http://www.w3.org/2000/svg">
<g id="icons / arrow-down">
<path id="Vector (Stroke)" fill-rule="evenodd" clip-rule="evenodd" d="M2.59846 6.86409C2.85474 6.6078 3.27026 6.6078 3.52654 6.86409L7 10.3375L10.4735 6.86409C10.7297 6.6078 11.1453 6.6078 11.4015 6.86409C11.6578 7.12037 11.6578 7.53588 11.4015 7.79216L7.46404 11.7297C7.20776 11.9859 6.79224 11.9859 6.53596 11.7297L2.59846 7.79216C2.34218 7.53588 2.34218 7.12037 2.59846 6.86409Z" fill="#2ECEF2"/>
<path id="Vector (Stroke)_2" fill-rule="evenodd" clip-rule="evenodd" d="M7 2.07812C7.36244 2.07812 7.65625 2.37194 7.65625 2.73438V10.7188C7.65625 11.0812 7.36244 11.375 7 11.375C6.63756 11.375 6.34375 11.0812 6.34375 10.7188V2.73438C6.34375 2.37194 6.63756 2.07812 7 2.07812Z" fill="#2ECEF2"/>
</g>
</svg>
