<svg width="24" height="24" viewBox="0 0 24 24" fill="none" xmlns="http://www.w3.org/2000/svg">
<g id="icons / logo-figma">
<path id="Vector" d="M15.75 8.25C16.7445 8.25 17.6984 7.85491 18.4016 7.15165C19.1049 6.44839 19.5 5.49456 19.5 4.5C19.5 3.50544 19.1049 2.55161 18.4016 1.84835C17.6984 1.14509 16.7445 0.75 15.75 0.75H8.24997C7.25541 0.75 6.30158 1.14509 5.59832 1.84835C4.89506 2.55161 4.49997 3.50544 4.49997 4.5C4.49997 5.49456 4.89506 6.44839 5.59832 7.15165C6.30158 7.85491 7.25541 8.25 8.24997 8.25C7.25541 8.25 6.30158 8.64509 5.59832 9.34835C4.89506 10.0516 4.49997 11.0054 4.49997 12C4.49997 12.9946 4.89506 13.9484 5.59832 14.6517C6.30158 15.3549 7.25541 15.75 8.24997 15.75C7.50829 15.75 6.78327 15.9699 6.16658 16.382C5.5499 16.794 5.06925 17.3797 4.78542 18.0649C4.50159 18.7502 4.42733 19.5042 4.57203 20.2316C4.71672 20.959 5.07387 21.6272 5.59832 22.1516C6.12277 22.6761 6.79095 23.0333 7.51838 23.1779C8.24581 23.3226 8.99981 23.2484 9.68503 22.9645C10.3703 22.6807 10.9559 22.2001 11.368 21.5834C11.78 20.9667 12 20.2417 12 19.5V8.25H15.75Z" fill="#ACF2D1"/>
<path id="Vector_2" d="M15.75 15.75C17.8211 15.75 19.5 14.0711 19.5 12C19.5 9.92893 17.8211 8.25 15.75 8.25C13.6789 8.25 12 9.92893 12 12C12 14.0711 13.6789 15.75 15.75 15.75Z" fill="#ACF2D1"/>
</g>
</svg>
