<svg width="24" height="24" viewBox="0 0 24 24" fill="none" xmlns="http://www.w3.org/2000/svg">
<g id="icons / logo-pinterest">
<path id="Vector" d="M12.0023 1.5C6.20385 1.5 1.50229 6.20156 1.50229 12C1.50229 16.2984 4.08979 19.9922 7.78823 21.6188C7.7601 20.8875 7.78354 20.0062 7.97104 19.2094C8.1726 18.3562 9.32104 13.4859 9.32104 13.4859C9.32104 13.4859 8.98354 12.8156 8.98354 11.8266C8.98354 10.2703 9.88354 9.10781 11.0085 9.10781C11.9648 9.10781 12.4242 9.825 12.4242 10.6828C12.4242 11.6437 11.8101 13.0781 11.496 14.4094C11.2335 15.525 12.0539 16.4297 13.1554 16.4297C15.1429 16.4297 16.4835 13.875 16.4835 10.8469C16.4835 8.54531 14.932 6.825 12.1148 6.825C8.93198 6.825 6.94448 9.20156 6.94448 11.8547C6.94448 12.7687 7.21635 13.4156 7.63823 13.9125C7.83041 14.1422 7.85854 14.2359 7.78823 14.4984C7.73666 14.6906 7.62416 15.1547 7.5726 15.3422C7.50229 15.6094 7.28666 15.7031 7.0476 15.6047C5.58041 15.0047 4.89604 13.4016 4.89604 11.5922C4.89604 8.61094 7.41323 5.03438 12.4007 5.03438C16.4085 5.03438 19.0476 7.93594 19.0476 11.0484C19.0476 15.1687 16.7554 18.2438 13.3804 18.2438C12.246 18.2438 11.182 17.6297 10.8164 16.9359C10.8164 16.9359 10.207 19.3547 10.0757 19.8234C9.85541 20.6344 9.41948 21.4406 9.02104 22.0734C9.98755 22.3586 10.9899 22.5038 11.9976 22.5047C17.796 22.5047 22.4976 17.8031 22.4976 12.0047C22.4976 6.20625 17.8007 1.5 12.0023 1.5Z" fill="#ACF2D1"/>
</g>
</svg>
