<svg width="50" height="50" viewBox="0 0 50 50" fill="none" xmlns="http://www.w3.org/2000/svg">
<g id="icons / reorder-three">
<path id="Vector (Stroke)" fill-rule="evenodd" clip-rule="evenodd" d="M7.8125 25C7.8125 23.8135 8.77439 22.8516 9.96094 22.8516H40.0391C41.2256 22.8516 42.1875 23.8135 42.1875 25C42.1875 26.1865 41.2256 27.1484 40.0391 27.1484H9.96094C8.77439 27.1484 7.8125 26.1865 7.8125 25Z" fill="white"/>
<path id="Vector (Stroke)_2" fill-rule="evenodd" clip-rule="evenodd" d="M7.8125 17.1875C7.8125 16.001 8.77439 15.0391 9.96094 15.0391H40.0391C41.2256 15.0391 42.1875 16.001 42.1875 17.1875C42.1875 18.374 41.2256 19.3359 40.0391 19.3359H9.96094C8.77439 19.3359 7.8125 18.374 7.8125 17.1875Z" fill="white"/>
<path id="Vector (Stroke)_3" fill-rule="evenodd" clip-rule="evenodd" d="M7.8125 32.8125C7.8125 31.626 8.77439 30.6641 9.96094 30.6641H40.0391C41.2256 30.6641 42.1875 31.626 42.1875 32.8125C42.1875 33.999 41.2256 34.9609 40.0391 34.9609H9.96094C8.77439 34.9609 7.8125 33.999 7.8125 32.8125Z" fill="white"/>
</g>
</svg>
